<mxfile host="65bd71144e">
    <diagram id="WQaQEaBLifYKC8mGaBvc" name="Page-1">
        <mxGraphModel dx="2797" dy="1546" grid="0" gridSize="10" guides="1" tooltips="1" connect="1" arrows="1" fold="1" page="0" pageScale="1" pageWidth="827" pageHeight="1169" background="none" math="0" shadow="0">
            <root>
                <mxCell id="0"/>
                <mxCell id="1" parent="0"/>
                <mxCell id="29" style="edgeStyle=elbowEdgeStyle;elbow=vertical;html=1;entryX=0.5;entryY=0;entryDx=0;entryDy=0;endArrow=none;endFill=0;" parent="1" source="7" target="9" edge="1">
                    <mxGeometry relative="1" as="geometry"/>
                </mxCell>
                <mxCell id="30" style="edgeStyle=elbowEdgeStyle;elbow=vertical;html=1;entryX=0.5;entryY=0;entryDx=0;entryDy=0;endArrow=none;endFill=0;" parent="1" source="7" target="16" edge="1">
                    <mxGeometry relative="1" as="geometry"/>
                </mxCell>
                <mxCell id="38" style="edgeStyle=elbowEdgeStyle;elbow=vertical;html=1;entryX=0;entryY=0.5;entryDx=0;entryDy=0;endArrow=none;endFill=0;" parent="1" source="7" target="35" edge="1">
                    <mxGeometry relative="1" as="geometry"/>
                </mxCell>
                <mxCell id="7" value="&lt;p style=&quot;margin:0px;margin-top:4px;text-align:center;&quot;&gt;&lt;i&gt;&amp;lt;&amp;lt;Interface&amp;gt;&amp;gt;&lt;/i&gt;&lt;br&gt;&lt;b&gt;PaymentStrategy&lt;/b&gt;&lt;/p&gt;&lt;hr size=&quot;1&quot;&gt;&lt;div style=&quot;text-align: justify;&quot;&gt;&lt;span style=&quot;background-color: initial;&quot;&gt;&amp;nbsp;boolean processPayment(Order order);&lt;/span&gt;&lt;/div&gt;&lt;div style=&quot;text-align: justify;&quot;&gt;&lt;span style=&quot;background-color: initial;&quot;&gt;&amp;nbsp;void getPaymentDetails();&lt;/span&gt;&lt;/div&gt;&lt;div style=&quot;text-align: justify;&quot;&gt;&lt;span style=&quot;background-color: initial;&quot;&gt;&amp;nbsp;boolean paymentDetailsIsValid(Double amount);&lt;/span&gt;&lt;/div&gt;&lt;p style=&quot;margin:0px;margin-left:4px;&quot;&gt;&lt;br&gt;&lt;/p&gt;" style="verticalAlign=top;align=left;overflow=fill;fontSize=12;fontFamily=Helvetica;html=1;" parent="1" vertex="1">
                    <mxGeometry x="129" y="30" width="263" height="100" as="geometry"/>
                </mxCell>
                <mxCell id="32" style="edgeStyle=elbowEdgeStyle;elbow=vertical;html=1;endArrow=none;endFill=0;" parent="1" source="9" target="22" edge="1">
                    <mxGeometry relative="1" as="geometry"/>
                </mxCell>
                <mxCell id="40" style="edgeStyle=elbowEdgeStyle;elbow=vertical;html=1;endArrow=none;endFill=0;" parent="1" source="9" target="39" edge="1">
                    <mxGeometry relative="1" as="geometry"/>
                </mxCell>
                <mxCell id="9" value="&lt;p style=&quot;margin:0px;margin-top:4px;text-align:center;&quot;&gt;&amp;lt;&amp;lt;Abstract Class&amp;gt;&amp;gt;&lt;/p&gt;&lt;p style=&quot;margin:0px;margin-top:4px;text-align:center;&quot;&gt;CardPayment&lt;/p&gt;&lt;hr size=&quot;1&quot;&gt;&lt;p style=&quot;margin:0px;margin-left:4px;&quot;&gt;protected String cardName;&lt;/p&gt;&lt;p style=&quot;margin:0px;margin-left:4px;&quot;&gt;protected String cardNumber;&lt;/p&gt;&lt;p style=&quot;margin:0px;margin-left:4px;&quot;&gt;protected String expiryDate;&lt;/p&gt;&lt;p style=&quot;margin:0px;margin-left:4px;&quot;&gt;protected Integer cvv;&lt;/p&gt;&lt;hr&gt;&lt;p style=&quot;margin:0px;margin-left:4px;&quot;&gt;&lt;br&gt;&lt;/p&gt;&lt;span style=&quot;text-align: justify;&quot;&gt;&amp;nbsp;boolean processPayment(Order order);&amp;nbsp;&lt;/span&gt;&lt;span style=&quot;background-color: initial; text-align: justify;&quot;&gt;--&amp;gt; Interface&lt;br&gt;&lt;/span&gt;&lt;div style=&quot;text-align: justify;&quot;&gt;&lt;span style=&quot;background-color: initial;&quot;&gt;&amp;nbsp;void getPaymentDetails(); --&amp;gt; Interface&lt;/span&gt;&lt;/div&gt;&lt;p style=&quot;margin: 0px 0px 0px 4px;&quot;&gt;public String getCardName();&lt;/p&gt;&lt;p style=&quot;margin: 0px 0px 0px 4px;&quot;&gt;public String getCardNumber();&lt;/p&gt;&lt;p style=&quot;margin: 0px 0px 0px 4px;&quot;&gt;public get expiryDate();&lt;/p&gt;&lt;p style=&quot;margin: 0px 0px 0px 4px;&quot;&gt;public Interger getCvv();&lt;/p&gt;&lt;p style=&quot;margin:0px;margin-left:4px;&quot;&gt;&lt;br&gt;&lt;/p&gt;" style="verticalAlign=top;align=left;overflow=fill;fontSize=12;fontFamily=Helvetica;html=1;" parent="1" vertex="1">
                    <mxGeometry x="-127" y="265" width="329" height="233" as="geometry"/>
                </mxCell>
                <mxCell id="16" value="&lt;p style=&quot;text-align: center; margin: 4px 0px 0px;&quot;&gt;&amp;lt;&amp;lt;Class&amp;gt;&amp;gt;&lt;/p&gt;&lt;span style=&quot;&quot;&gt;&lt;div style=&quot;text-align: center;&quot;&gt;&lt;span style=&quot;background-color: initial;&quot;&gt;PixPayment&lt;/span&gt;&lt;/div&gt;&lt;/span&gt;&lt;hr size=&quot;1&quot;&gt;&lt;p style=&quot;margin:0px;margin-left:4px;&quot;&gt;private String pixKey;&lt;/p&gt;&lt;p style=&quot;margin:0px;margin-left:4px;&quot;&gt;private String pixOwnerName;&lt;/p&gt;&lt;hr&gt;&lt;p style=&quot;margin:0px;margin-left:4px;&quot;&gt;&lt;br&gt;&lt;/p&gt;&lt;div style=&quot;text-align: justify;&quot;&gt;&lt;span style=&quot;background-color: initial;&quot;&gt;&amp;nbsp;&lt;/span&gt;boolean processPayment(Order order);&lt;span style=&quot;background-color: initial;&quot;&gt;&amp;nbsp;&amp;nbsp;--&amp;gt; Interface&lt;/span&gt;&lt;/div&gt;&lt;span style=&quot;text-align: justify;&quot;&gt;&amp;nbsp;void getPaymentDetails(); --&amp;gt; Interface&lt;br&gt;&lt;/span&gt;&lt;span style=&quot;text-align: justify;&quot;&gt;&amp;nbsp;boolean paymentDetailsIsValid(Double amount);&lt;/span&gt;&lt;span style=&quot;text-align: justify;&quot;&gt;&lt;br&gt;&lt;/span&gt;&lt;p style=&quot;margin: 0px 0px 0px 4px;&quot;&gt;public String getPixKey();&lt;/p&gt;&lt;p style=&quot;margin: 0px 0px 0px 4px;&quot;&gt;public String getOwnerName();&lt;/p&gt;&lt;p style=&quot;margin:0px;margin-left:4px;&quot;&gt;&lt;br&gt;&lt;/p&gt;" style="verticalAlign=top;align=left;overflow=fill;fontSize=12;fontFamily=Helvetica;html=1;" parent="1" vertex="1">
                    <mxGeometry x="285" y="268" width="315" height="183" as="geometry"/>
                </mxCell>
                <mxCell id="22" value="&lt;p style=&quot;text-align: center; margin: 4px 0px 0px;&quot;&gt;&amp;lt;&amp;lt;Class&amp;gt;&amp;gt;&lt;/p&gt;&lt;span style=&quot;&quot;&gt;&lt;div style=&quot;text-align: center;&quot;&gt;CreditCardPayment&lt;/div&gt;&lt;/span&gt;&lt;hr&gt;&lt;p style=&quot;margin:0px;margin-left:4px;&quot;&gt;&lt;br&gt;&lt;/p&gt;&lt;span style=&quot;text-align: justify;&quot;&gt;&amp;nbsp;boolean processPayment(Order order);&lt;br&gt;&lt;/span&gt;&lt;span style=&quot;text-align: justify;&quot;&gt;&amp;nbsp;void getPaymentDetails(); --&amp;gt; Interface&lt;br&gt;&lt;/span&gt;&lt;span style=&quot;text-align: justify;&quot;&gt;&amp;nbsp;boolean paymentDetailsIsValid(Double amount);&lt;/span&gt;&lt;span style=&quot;text-align: justify;&quot;&gt;&amp;nbsp;&lt;br&gt;&lt;/span&gt;" style="verticalAlign=top;align=left;overflow=fill;fontSize=12;fontFamily=Helvetica;html=1;" parent="1" vertex="1">
                    <mxGeometry x="-259" y="620" width="267" height="112" as="geometry"/>
                </mxCell>
                <mxCell id="34" value="ECommerce" style="swimlane;fontStyle=1;align=center;verticalAlign=top;childLayout=stackLayout;horizontal=1;startSize=26;horizontalStack=0;resizeParent=1;resizeParentMax=0;resizeLast=0;collapsible=1;marginBottom=0;" parent="1" vertex="1">
                    <mxGeometry x="763" y="27" width="368" height="101" as="geometry"/>
                </mxCell>
                <mxCell id="35" value="private PaymentStrategy paymentMethod;" style="text;strokeColor=none;fillColor=none;align=left;verticalAlign=top;spacingLeft=4;spacingRight=4;overflow=hidden;rotatable=0;points=[[0,0.5],[1,0.5]];portConstraint=eastwest;" parent="34" vertex="1">
                    <mxGeometry y="26" width="368" height="26" as="geometry"/>
                </mxCell>
                <mxCell id="36" value="" style="line;strokeWidth=1;fillColor=none;align=left;verticalAlign=middle;spacingTop=-1;spacingLeft=3;spacingRight=3;rotatable=0;labelPosition=right;points=[];portConstraint=eastwest;strokeColor=inherit;" parent="34" vertex="1">
                    <mxGeometry y="52" width="368" height="8" as="geometry"/>
                </mxCell>
                <mxCell id="37" value="public void setPaymentMethod(PaymentStrategy paymentMethod);&#10;public boolean makePayment(Order order);" style="text;strokeColor=none;fillColor=none;align=left;verticalAlign=top;spacingLeft=4;spacingRight=4;overflow=hidden;rotatable=0;points=[[0,0.5],[1,0.5]];portConstraint=eastwest;" parent="34" vertex="1">
                    <mxGeometry y="60" width="368" height="41" as="geometry"/>
                </mxCell>
                <mxCell id="39" value="&lt;p style=&quot;text-align: center; margin: 4px 0px 0px;&quot;&gt;&amp;lt;&amp;lt;Class&amp;gt;&amp;gt;&lt;/p&gt;&lt;span style=&quot;&quot;&gt;&lt;div style=&quot;text-align: center;&quot;&gt;DeditCardPayment&lt;/div&gt;&lt;/span&gt;&lt;hr&gt;&lt;p style=&quot;margin:0px;margin-left:4px;&quot;&gt;&lt;br&gt;&lt;/p&gt;&lt;span style=&quot;text-align: justify;&quot;&gt;&amp;nbsp;boolean processPayment(Order order);&lt;br&gt;&lt;/span&gt;&lt;span style=&quot;text-align: justify;&quot;&gt;&amp;nbsp;void getPaymentDetails(); --&amp;gt; Interface&lt;/span&gt;&lt;span style=&quot;text-align: justify;&quot;&gt;&amp;nbsp;&lt;br&gt;&amp;nbsp;&lt;/span&gt;&lt;span style=&quot;text-align: justify;&quot;&gt;boolean paymentDetailsIsValid(Double amount);&lt;/span&gt;&lt;span style=&quot;text-align: justify;&quot;&gt;&lt;br&gt;&lt;/span&gt;" style="verticalAlign=top;align=left;overflow=fill;fontSize=12;fontFamily=Helvetica;html=1;" parent="1" vertex="1">
                    <mxGeometry x="97" y="620" width="263" height="115" as="geometry"/>
                </mxCell>
                <mxCell id="41" value="&lt;p style=&quot;margin: 0px; font-variant-numeric: normal; font-variant-east-asian: normal; font-variant-alternates: normal; font-kerning: auto; font-optical-sizing: auto; font-feature-settings: normal; font-variation-settings: normal; font-stretch: normal; line-height: normal; color: rgb(0, 0, 0); text-align: start; font-size: 16px;&quot; class=&quot;p1&quot;&gt;Foi utilizado o design pattern ‘Strategy’ para a implementação do serviço de pagamento do E-Commerce,&amp;nbsp;&lt;/p&gt;&lt;p style=&quot;margin: 0px; font-variant-numeric: normal; font-variant-east-asian: normal; font-variant-alternates: normal; font-kerning: auto; font-optical-sizing: auto; font-feature-settings: normal; font-variation-settings: normal; font-stretch: normal; line-height: normal; color: rgb(0, 0, 0); text-align: start; font-size: 16px;&quot; class=&quot;p1&quot;&gt;a escolha se deve pelo fato de que o esse pattern tem o objetivo de encapsular famílias de algoritmos e&amp;nbsp;&lt;/p&gt;&lt;p style=&quot;margin: 0px; font-variant-numeric: normal; font-variant-east-asian: normal; font-variant-alternates: normal; font-kerning: auto; font-optical-sizing: auto; font-feature-settings: normal; font-variation-settings: normal; font-stretch: normal; line-height: normal; color: rgb(0, 0, 0); text-align: start; font-size: 16px;&quot; class=&quot;p1&quot;&gt;torná-las intercambiáveis, assim permitindo que a utilização do serviço de pagamento possa variar de forma&lt;span class=&quot;Apple-converted-space&quot; style=&quot;font-size: 16px;&quot;&gt;&amp;nbsp;&lt;/span&gt;&lt;/p&gt;&lt;p style=&quot;margin: 0px; font-variant-numeric: normal; font-variant-east-asian: normal; font-variant-alternates: normal; font-kerning: auto; font-optical-sizing: auto; font-feature-settings: normal; font-variation-settings: normal; font-stretch: normal; line-height: normal; color: rgb(0, 0, 0); text-align: start; font-size: 16px;&quot; class=&quot;p1&quot;&gt;&lt;span class=&quot;Apple-converted-space&quot; style=&quot;font-size: 16px;&quot;&gt;&lt;/span&gt;flexível e também respeitando os princípios de responsabilidade única e o principio do open/close, pois assim&amp;nbsp;&lt;/p&gt;&lt;p style=&quot;margin: 0px; font-variant-numeric: normal; font-variant-east-asian: normal; font-variant-alternates: normal; font-kerning: auto; font-optical-sizing: auto; font-feature-settings: normal; font-variation-settings: normal; font-stretch: normal; line-height: normal; color: rgb(0, 0, 0); text-align: start; font-size: 16px;&quot; class=&quot;p1&quot;&gt;os métodos de pagamento estão fechados para mudança e aberto para extensão, podendo adicionar ou remover&amp;nbsp;&lt;/p&gt;&lt;p style=&quot;margin: 0px; font-variant-numeric: normal; font-variant-east-asian: normal; font-variant-alternates: normal; font-kerning: auto; font-optical-sizing: auto; font-feature-settings: normal; font-variation-settings: normal; font-stretch: normal; line-height: normal; color: rgb(0, 0, 0); text-align: start; font-size: 16px;&quot; class=&quot;p1&quot;&gt;novos tipos de pagamento, sem a necessidade de refatorar o restante do serviço de pagamento em si.&lt;/p&gt;" style="text;html=1;align=center;verticalAlign=middle;resizable=0;points=[];autosize=1;strokeColor=#666666;fillColor=#f5f5f5;fontColor=#333333;labelBackgroundColor=none;labelBorderColor=none;fontSize=16;" parent="1" vertex="1">
                    <mxGeometry x="144" y="-149" width="827" height="123" as="geometry"/>
                </mxCell>
            </root>
        </mxGraphModel>
    </diagram>
</mxfile>